<svg width="25" height="18" viewBox="0 0 25 18" fill="none" xmlns="http://www.w3.org/2000/svg">
<path d="M22.0833 17.9082H2.91667C2.14312 17.9082 1.40125 17.6009 0.854272 17.0539C0.307291 16.507 0 15.7651 0 14.9916V3.00822C0 2.23467 0.307291 1.49281 0.854272 0.945825C1.40125 0.398844 2.14312 0.0915527 2.91667 0.0915527H22.0833C22.8569 0.0915527 23.5987 0.398844 24.1457 0.945825C24.6927 1.49281 25 2.23467 25 3.00822V14.9916C25 15.7651 24.6927 16.507 24.1457 17.0539C23.5987 17.6009 22.8569 17.9082 22.0833 17.9082ZM2.91667 1.75822C2.58515 1.75822 2.2672 1.88992 2.03278 2.12434C1.79836 2.35876 1.66667 2.6767 1.66667 3.00822V14.9916C1.66667 15.3231 1.79836 15.641 2.03278 15.8754C2.2672 16.1099 2.58515 16.2416 2.91667 16.2416H22.0833C22.4149 16.2416 22.7328 16.1099 22.9672 15.8754C23.2016 15.641 23.3333 15.3231 23.3333 14.9916V3.00822C23.3333 2.6767 23.2016 2.35876 22.9672 2.12434C22.7328 1.88992 22.4149 1.75822 22.0833 1.75822H2.91667Z" fill="#8936FF"/>
<path d="M12.5001 8.98324C11.8484 8.98398 11.2078 8.8145 10.6417 8.49157L1.26672 2.49157L2.05006 1.0249L11.4501 7.0249C11.7648 7.20467 12.1209 7.29923 12.4834 7.29923C12.8458 7.29923 13.202 7.20467 13.5167 7.0249L22.9334 1.0249L23.7167 2.49157L14.3167 8.49157C13.7641 8.81036 13.138 8.97981 12.5001 8.98324Z" fill="#8936FF"/>
</svg>
