<svg width="13" height="13" viewBox="0 0 13 13" fill="none" xmlns="http://www.w3.org/2000/svg">
<path d="M2.54871 12.963C3.01121 13.3089 5.9788 11.1163 6.54716 11.1115C7.11552 11.1067 10.1165 13.2488 10.5736 12.8952C11.0307 12.5415 9.95609 8.9091 10.1273 8.34171C10.2986 7.77432 13.1719 5.44806 12.9919 4.88363C12.8119 4.31919 9.18013 4.26676 8.71763 3.92088C8.25513 3.57503 7.02989 -0.00477262 6.46149 4.77737e-06C5.89317 0.00482372 4.72328 3.60486 4.26618 3.95851C3.80907 4.31213 0.178567 4.42595 0.00727272 4.99334C-0.163981 5.56073 2.74473 7.83813 2.92475 8.40257C3.10473 8.96701 2.08621 12.6171 2.54871 12.963Z" fill="url(#paint0_linear_55_640)"/>
<defs>
<linearGradient id="paint0_linear_55_640" x1="7.08697" y1="-0.263513" x2="2.23134" y2="11.5308" gradientUnits="userSpaceOnUse">
<stop stop-color="#E9A904"/>
<stop offset="1" stop-color="#FFC805"/>
</linearGradient>
</defs>
</svg>
